<?xml version="1.0" encoding="UTF-8" standalone="no"?>
<!DOCTYPE svg PUBLIC "-//W3C//DTD SVG 1.1//EN" "http://www.w3.org/Graphics/SVG/1.1/DTD/svg11.dtd">
<svg width="100%" height="100%" viewBox="0 0 104 33" version="1.1" xmlns="http://www.w3.org/2000/svg" xmlns:xlink="http://www.w3.org/1999/xlink" xml:space="preserve" xmlns:serif="http://www.serif.com/" style="fill-rule:evenodd;clip-rule:evenodd;stroke-linejoin:round;stroke-miterlimit:2;">
    <g transform="matrix(1,0,0,1,-6.91497e-07,-0.516602)">
        <path d="M29.461,14.884C29.494,14.706 29.529,14.547 29.563,14.409L31.939,4.673C32.617,2.054 34.144,0.517 36.916,0.517C39.065,0.517 40.705,1.94 40.705,3.933C40.705,5.584 40.026,7.121 38.443,8.829L32.536,15.331C31.995,17.957 33.301,18.794 34.71,18.794C37.451,18.794 39.171,16.582 39.869,14.7C39.899,14.599 39.933,14.502 39.97,14.409L42.402,4.673C43.08,2.054 44.607,0.517 47.379,0.517C49.528,0.517 51.168,1.94 51.168,3.933C51.168,5.584 50.489,7.121 48.906,8.829L43,15.33C42.473,17.956 43.957,18.794 45.908,18.794C47.82,18.794 49.685,17.748 50.554,15.004L52.016,9.114L55.41,9.114L53.713,15.89C53.26,17.712 53.769,18.794 55.183,18.794C56.88,18.794 57.559,18.281 58.237,15.548L59.029,12.246C59.651,9.627 61.235,8.886 63.78,8.886L67.117,8.886C69.436,8.886 71.189,10.822 70.623,13.157L68.474,21.868L65.081,21.868L67.23,13.271C67.456,12.416 67.117,11.961 66.268,11.961L63.667,11.961C62.988,11.961 62.592,12.303 62.423,12.929L61.291,17.655C60.669,20.16 58.859,21.868 55.919,21.868L55.183,21.868C53.445,21.868 51.987,21.054 51.143,19.566C50.015,20.808 48.311,21.868 45.625,21.868C42.914,21.868 41.291,20.654 40.44,19.142C39.153,20.589 37.294,21.868 34.71,21.868C32.302,21.868 30.919,21.023 30.155,19.882C29.1,21.034 27.599,21.868 25.435,21.868C23.059,21.868 19.609,20.672 21.023,15.036L22.494,9.114L25.887,9.114L24.247,15.377C23.625,17.712 24.53,18.794 26.17,18.794C28.254,18.794 29.105,16.401 29.461,14.884ZM44.259,10.203L46.417,7.235C47.661,5.527 48.057,5.015 48.057,4.502C48.057,3.99 47.605,3.591 47.096,3.591C46.361,3.591 45.795,4.047 45.456,5.356L44.259,10.203ZM33.796,10.203L35.954,7.235C37.198,5.527 37.594,5.015 37.594,4.502C37.594,3.99 37.142,3.591 36.633,3.591C35.898,3.591 35.332,4.047 34.993,5.356L33.796,10.203ZM15.978,11.163C18.001,12.067 18.478,13.554 18.478,15.32C18.478,18.964 15.48,22.096 10.164,22.096L7.449,22.096C2.359,22.096 -1.204,19.477 0.38,13.271L2.359,5.242C3.49,1.2 3.999,0.687 9.033,0.687L13.162,0.687C16.781,0.687 19.553,2.282 19.553,5.983C19.553,7.816 18.659,9.935 15.978,11.163ZM11.691,12.587L7.789,12.587L8.581,9.513L11.578,9.513C14.689,9.513 16.046,8.431 16.046,6.324C16.046,4.388 14.915,3.762 12.37,3.762L8.75,3.762C6.318,3.762 6.149,3.876 5.583,6.153L3.66,13.669C2.868,16.915 4.282,19.021 8.072,19.021L10.108,19.021C13.614,19.021 14.972,17.313 14.972,15.377C14.972,13.441 14.293,12.587 11.691,12.587ZM80.542,21.465C79.663,21.856 78.554,22.153 77.014,22.153C73.904,22.153 71.189,19.306 71.981,15.206C72.716,11.506 75.713,8.886 79.559,8.886C83.575,8.886 86.063,11.961 85.102,15.719L81.652,29.156C80.804,32.231 79.163,33.483 76.731,33.483C73.677,33.483 72.094,31.263 72.716,28.644C73.517,25.621 76.752,24.069 80.542,21.465ZM77.693,19.021C79.842,19.021 81.143,17.826 81.652,15.32C81.991,13.384 80.973,12.075 79.107,12.075C77.014,12.075 75.827,13.498 75.487,15.32C74.978,17.484 76.053,19.021 77.693,19.021ZM79.684,25.035C77.73,27.013 76.497,28.101 76.222,28.928C75.94,29.725 76.505,30.352 77.071,30.352C77.693,30.352 78.202,29.896 78.654,28.53L79.684,25.035ZM98.221,10.31L103.2,10.31L103.2,13.043L99.69,13.043C99.856,13.862 99.863,14.766 99.694,15.719C99.071,19.591 96.017,22.153 92.002,22.153C87.986,22.153 85.724,19.42 86.572,15.206C87.308,11.619 90.418,8.886 94.321,8.886C95.954,8.886 97.281,9.415 98.221,10.31ZM92.285,19.021C94.151,19.021 95.735,18.224 96.244,15.32C96.583,13.384 95.735,12.075 93.755,12.075C91.719,12.075 90.418,13.498 90.022,15.32C89.57,17.484 90.644,19.021 92.285,19.021ZM25.152,7.121C23.794,7.121 22.72,6.04 22.72,4.673C22.72,3.307 23.794,2.225 25.152,2.225C26.509,2.225 27.584,3.307 27.584,4.673C27.584,6.04 26.509,7.121 25.152,7.121ZM54.674,7.121C53.317,7.121 52.242,6.04 52.242,4.673C52.242,3.307 53.317,2.225 54.674,2.225C56.032,2.225 57.106,3.307 57.106,4.673C57.106,6.04 56.032,7.121 54.674,7.121Z" style="fill:rgb(32,54,255);"/>
    </g>
</svg>
