<?xml version="1.0" encoding="UTF-8" standalone="no"?>
<!DOCTYPE svg PUBLIC "-//W3C//DTD SVG 1.1//EN" "http://www.w3.org/Graphics/SVG/1.1/DTD/svg11.dtd">
<svg width="100%" height="100%" viewBox="0 0 981 262" version="1.1" xmlns="http://www.w3.org/2000/svg" xmlns:xlink="http://www.w3.org/1999/xlink" xml:space="preserve" xmlns:serif="http://www.serif.com/" style="fill-rule:evenodd;clip-rule:evenodd;stroke-linejoin:round;stroke-miterlimit:2;">
    <g transform="matrix(1,0,0,1,-9.99951,-9.32857)">
        <g>
            <path d="M195.227,132.826C197.135,132.598 198.962,132.588 200.641,132.826C201.613,130.597 201.78,126.754 200.906,122.57C199.607,116.35 197.848,112.586 194.213,113.172C190.579,113.758 190.445,118.264 191.744,124.484C192.475,127.982 193.777,130.973 195.227,132.826ZM164.026,137.748C166.626,138.889 168.224,139.645 168.85,138.984C169.252,138.571 169.132,137.785 168.511,136.771C167.228,134.676 164.588,132.551 161.787,131.358C156.058,128.893 149.228,129.712 143.958,133.499C142.218,134.774 140.568,136.54 140.805,137.612C140.881,137.959 141.142,138.22 141.752,138.305C143.186,138.469 148.199,135.935 153.972,135.582C158.049,135.332 161.426,136.607 164.026,137.748ZM158.795,140.732C155.409,141.267 153.54,142.383 152.341,143.422C151.317,144.317 150.685,145.305 150.69,146.001C150.693,146.331 150.836,146.522 150.949,146.617C151.104,146.754 151.287,146.829 151.506,146.829C152.271,146.829 153.985,146.142 153.985,146.142C158.698,144.455 161.807,144.659 164.889,145.01C166.591,145.201 167.395,145.307 167.769,144.723C167.879,144.556 168.014,144.193 167.672,143.641C166.879,142.354 163.459,140.178 158.795,140.732ZM184.691,151.689C186.991,152.819 189.523,152.375 190.347,150.698C191.171,149.021 189.975,146.746 187.675,145.616C185.375,144.486 182.843,144.929 182.019,146.606C181.195,148.283 182.391,150.559 184.691,151.689ZM199.475,138.77C197.608,138.739 196.057,140.79 196.014,143.352C195.971,145.914 197.45,148.016 199.318,148.048C201.187,148.079 202.736,146.028 202.78,143.467C202.823,140.904 201.344,138.802 199.475,138.77ZM72.024,184.732C71.508,184.852 70.923,184.989 70.282,184.977C68.908,184.951 67.744,184.364 67.091,183.36C66.24,182.053 66.289,180.105 67.228,177.873C67.355,177.573 67.504,177.239 67.666,176.875C69.165,173.513 71.673,167.887 68.857,162.525C66.738,158.49 63.282,155.977 59.127,155.449C55.137,154.944 51.03,156.423 48.411,159.314C44.278,163.873 43.632,170.077 44.431,172.269C44.724,173.072 45.182,173.294 45.515,173.34C46.218,173.435 47.258,172.923 47.909,171.171C47.956,171.045 48.018,170.849 48.096,170.601C48.386,169.674 48.926,167.95 49.812,166.567C50.879,164.899 52.541,163.751 54.493,163.333C56.481,162.908 58.512,163.286 60.213,164.4C63.108,166.295 64.223,169.843 62.987,173.228C62.348,174.978 61.31,178.325 61.539,181.075C62.002,186.643 65.426,188.878 68.502,189.115C71.493,189.228 73.584,187.55 74.112,186.322C74.425,185.596 74.161,185.154 73.992,184.965C73.527,184.382 72.763,184.56 72.024,184.732ZM151.012,191.942C151.013,191.944 151.015,191.946 151.016,191.948C151.018,191.952 151.019,191.956 151.021,191.96C151.018,191.954 151.015,191.948 151.012,191.942ZM247.064,193.007C245.154,204.584 240.233,213.979 231.963,222.622C226.93,228.041 220.818,232.752 213.825,236.178C210.112,238.129 206.158,239.816 201.981,241.18C170.806,251.362 138.895,240.168 128.606,216.129C127.786,214.322 127.092,212.43 126.545,210.451C122.161,194.61 125.883,175.605 137.516,163.642C137.517,163.641 137.514,163.637 137.515,163.636C138.233,162.874 138.964,161.977 138.964,160.848C138.964,159.904 138.364,158.908 137.844,158.202C133.774,152.298 119.676,142.239 122.506,122.771C124.538,108.786 136.769,98.937 148.173,99.521C149.136,99.57 150.101,99.63 151.063,99.687C156.004,99.979 160.316,100.612 164.384,100.783C171.192,101.077 177.316,100.087 184.567,94.045C187.014,92.006 188.974,90.239 192.293,89.677C192.641,89.618 193.51,89.307 195.244,89.388C197.014,89.483 198.699,89.969 200.214,90.977C206.028,94.846 206.853,104.215 207.154,111.069C207.325,114.981 207.798,124.448 207.96,127.165C208.33,133.379 209.963,134.255 213.268,135.343C215.126,135.954 216.851,136.411 219.393,137.124C227.089,139.285 231.652,141.477 234.528,144.293C236.243,146.052 237.04,147.922 237.287,149.705C238.195,156.325 232.147,164.503 216.139,171.933C198.641,180.055 177.412,182.111 162.745,180.478C161.62,180.352 157.62,179.899 157.606,179.897C145.874,178.317 139.181,193.48 146.222,203.867C150.76,210.562 163.121,214.919 175.489,214.921C203.845,214.926 225.641,202.816 233.747,192.358C233.99,192.045 234.014,192.011 234.396,191.434C234.795,190.832 234.466,190.502 233.969,190.841C227.345,195.373 197.924,213.367 166.454,207.954C166.454,207.954 162.63,207.326 159.139,205.967C156.365,204.888 150.56,202.218 149.854,196.261C175.251,204.115 191.242,196.691 191.242,196.691C191.531,196.569 191.73,196.238 191.697,195.911C191.656,195.508 191.296,195.215 190.894,195.256C190.894,195.256 170.075,198.338 150.408,191.138C152.55,184.175 158.246,186.69 166.856,187.384C182.374,188.309 196.283,186.042 206.561,183.092C215.468,180.535 227.167,175.496 236.253,168.325C239.318,175.057 240.401,182.466 240.401,182.466C240.401,182.466 242.773,182.041 244.755,183.262C246.629,184.414 248.003,186.811 247.064,193.007ZM102.427,82.722C112.182,71.449 124.192,61.648 134.949,56.145C135.321,55.955 135.716,56.359 135.514,56.725C134.66,58.272 133.015,61.583 132.494,64.097C132.413,64.488 132.839,64.783 133.169,64.558C139.862,59.995 151.504,55.107 161.716,54.479C162.155,54.452 162.367,55.015 162.018,55.282C160.465,56.473 158.767,58.122 157.526,59.789C157.315,60.073 157.514,60.482 157.867,60.484C165.038,60.535 175.147,63.045 181.735,66.739C182.181,66.99 181.863,67.853 181.365,67.739C171.396,65.454 155.078,63.721 138.128,67.855C122.996,71.546 111.446,77.245 103.019,83.373C102.594,83.683 102.082,83.12 102.427,82.722ZM51.746,136.334C42.913,138.051 35.129,143.057 30.369,149.972C27.523,147.599 22.222,143.005 21.286,141.215C13.686,126.784 29.58,98.727 40.684,82.882C68.124,43.723 111.102,14.084 130.998,19.461C134.231,20.376 144.944,32.797 144.944,32.797C144.944,32.797 125.056,43.831 106.614,59.212C81.763,78.346 62.991,106.156 51.746,136.334ZM66.588,202.555C65.251,202.783 63.887,202.873 62.512,202.841C49.222,202.484 34.867,190.52 33.441,176.331C31.864,160.648 39.877,148.577 54.066,145.716C55.762,145.374 57.812,145.177 60.022,145.292C67.972,145.727 79.686,151.832 82.363,169.149C84.733,184.486 80.968,200.103 66.588,202.555ZM246.615,174.784C246.501,174.382 245.759,171.67 244.74,168.403C243.721,165.137 242.666,162.837 242.666,162.837C246.754,156.717 246.826,151.244 246.283,148.146C245.703,144.303 244.104,141.029 240.879,137.645C237.656,134.26 231.062,130.794 221.796,128.193C220.736,127.895 217.241,126.936 216.934,126.843C216.91,126.642 216.678,115.38 216.467,110.546C216.314,107.051 216.014,101.596 214.321,96.221C212.303,88.948 208.788,82.583 204.401,78.511C216.509,65.96 224.067,52.133 224.049,40.272C224.015,17.461 196.001,10.559 161.478,24.854C161.441,24.87 154.215,27.934 154.163,27.96C154.131,27.928 140.939,14.985 140.741,14.812C101.38,-19.52 -21.685,117.27 17.66,150.493L26.26,157.777C24.029,163.555 23.153,170.175 23.869,177.293C24.787,186.437 29.504,195.202 37.148,201.974C44.405,208.403 53.946,212.472 63.205,212.465C78.516,247.749 113.501,269.395 154.521,270.614C198.522,271.921 235.458,251.274 250.935,214.185C251.947,211.582 256.243,199.854 256.243,189.501C256.243,179.096 250.361,174.784 246.615,174.784Z" style="fill-rule:nonzero;"/>
            <path d="M564.126,83.945L564.126,41.114L545.736,41.114L545.736,81.752C545.736,91.819 538.998,98.556 530.144,98.556C521.266,98.556 514.556,91.819 514.556,81.752L514.556,41.114L496.194,41.114L496.297,83.945C496.297,102.598 511.227,116.232 530.2,116.232C549.168,116.232 564.126,102.625 564.126,83.945ZM635.149,114.752L653.511,114.752L653.511,58.315L675.416,58.315L675.416,41.114L613.215,41.114L613.215,58.315L635.149,58.315L635.149,114.752ZM601.353,41.14L582.991,41.14L582.991,114.779L601.353,114.779L601.353,41.14ZM444.037,114.752L462.399,114.752L462.399,58.315L484.304,58.315L484.304,41.114L422.104,41.114L422.104,58.315L444.037,58.315L444.037,114.752ZM325.743,114.779L325.743,41.14L307.38,41.14L307.38,114.779L325.743,114.779ZM362.946,74.116C362.946,64.049 369.683,57.311 378.535,57.311C387.386,57.311 394.124,64.049 394.124,74.116L394.124,114.752L412.487,114.752L412.435,71.922C412.435,53.268 397.479,39.634 378.508,39.634C359.537,39.634 344.582,53.242 344.582,71.922L344.582,114.752L362.946,114.752L362.946,74.116Z" style="fill-rule:nonzero;"/>
            <path d="M397.615,154.214C376.916,154.214 376.552,176.81 371.659,176.81C370.638,176.81 369.827,175.906 369.827,174.673C369.827,173.021 370.256,171.588 370.256,168.923C370.256,160.812 364.549,154.214 352.574,154.214C342.412,154.214 334.977,159.304 330.436,168.718C328.134,173.491 328.331,176.81 326.008,176.81C325.148,176.81 324.481,175.995 324.481,174.825C324.481,171.37 327.535,168.203 327.535,160.779C327.535,158.847 327.383,157.217 327.077,155.893L307.381,155.893L307.381,232.233L334.1,232.233L334.1,190.813C334.1,182.648 337.595,177.422 343.567,177.422C347.523,177.422 351.048,180.878 351.048,187.212L351.048,232.233L377.767,232.233L377.767,190.813C377.767,181.647 382.011,177.422 387.233,177.422C391.61,177.422 394.714,181.472 394.714,187.212L394.714,232.233L421.128,232.233L421.128,185.36C421.128,164.876 412.995,154.214 397.615,154.214ZM553.954,232.233L580.368,232.233L580.368,134.518L553.954,134.518L553.954,232.233ZM589.07,193.147C589.07,219.12 605.875,234.065 627.698,234.065C640.21,234.065 649.771,229.116 655.638,224.293L655.638,199.102C649.702,203.164 640.563,207.804 630.751,207.804C618.515,207.804 612.124,202.721 612.124,193.911C612.124,185.508 619.49,180.17 630.293,180.17C640.075,180.17 649.046,184.062 655.638,188.567L655.638,161.848C650.061,157.696 640.21,154.061 627.698,154.061C604.282,154.061 589.07,168.706 589.07,193.147ZM713.807,154.367C703.064,154.367 696.844,159.343 692.281,168.566C690.268,172.632 690.117,176.658 687.852,176.658C686.998,176.658 686.326,175.87 686.326,174.673C686.326,170.444 691.364,164.13 691.364,145.511C691.364,140.831 690.906,137.216 689.99,134.671L666.935,134.671L666.935,232.233L693.654,232.233L693.654,191.148C693.654,183.452 697.702,177.574 703.884,177.574C708.486,177.574 711.67,181.314 711.67,187.365L711.67,232.233L738.389,232.233L738.389,184.445C738.389,164.501 729.692,154.367 713.807,154.367ZM951.831,216.202C946.437,216.202 940.532,210.612 940.532,196.506C940.532,184.22 945.36,176.963 951.831,176.963C959.274,176.963 963.434,184.131 963.434,196.506C963.434,210.253 958.645,216.202 951.831,216.202ZM959.007,154.061C947.201,154.061 941.166,160.788 937.793,167.01C935.125,171.933 934.737,176.658 932.441,176.658C931.319,176.658 930.761,175.997 930.761,174.673C930.761,172.335 933.814,168.366 933.814,161.848C933.814,159.203 933.609,157.217 933.204,155.893L913.203,155.893L913.203,251.776L940.074,251.776L940.074,221.661C943.487,228.945 950.623,233.76 960.38,233.76C977.977,233.76 990,219.242 990,193.911C990,170.541 978.858,154.061 959.007,154.061ZM459.873,215.054C454.914,215.054 452.249,212.885 452.249,209.108C452.249,204.183 456.874,200.416 468.869,200.416C471.507,200.416 473.904,200.506 476.068,200.684C475.009,207.71 468.884,215.054 459.873,215.054ZM468.869,154.061C455.065,154.061 442.431,157.474 433.646,161.838L433.646,183.948C443.869,178.427 454.346,174.341 463.532,174.341C473.373,174.341 477.538,179.531 476.955,186.36C472.981,185.948 468.575,185.778 463.227,185.778C442.329,185.778 429.224,193.936 429.224,211.7C429.224,226.29 440.583,233.81 453.011,233.81C465.133,233.81 473.477,228.014 478.311,219.272C481.064,214.294 480.827,211.242 482.624,211.242C483.502,211.242 484.117,211.87 484.117,212.849C484.117,216.036 483.203,217.901 483.203,222.221C483.203,226.262 483.732,229.665 484.575,232.132L503.788,232.132L503.788,191.267C503.788,168.053 493.171,154.061 468.869,154.061ZM878.546,154.214C857.848,154.214 857.483,176.81 852.59,176.81C851.569,176.81 850.759,175.906 850.759,174.673C850.759,173.021 851.187,171.588 851.187,168.923C851.187,160.812 845.48,154.214 833.506,154.214C823.343,154.214 815.909,159.304 811.367,168.718C809.066,173.491 809.263,176.81 806.939,176.81C806.079,176.81 805.413,175.995 805.413,174.825C805.413,171.37 808.467,168.203 808.467,160.779C808.467,158.847 808.314,157.217 808.009,155.893L788.313,155.893L788.313,232.233L815.032,232.233L815.032,190.813C815.032,182.648 818.527,177.422 824.498,177.422C828.455,177.422 831.979,180.878 831.979,187.212L831.979,232.233L858.698,232.233L858.698,190.813C858.698,181.647 862.942,177.422 868.165,177.422C872.541,177.422 875.646,181.472 875.646,187.212L875.646,232.233L902.059,232.233L902.059,185.36C902.059,164.876 893.927,154.214 878.546,154.214ZM762.969,161.237C757.37,161.237 752.942,160.424 749.686,158.794L749.686,232.233L776.1,232.233L776.1,158.794C772.672,160.299 768.588,161.237 762.969,161.237ZM762.816,134.06C751.899,134.06 746.174,138.889 746.174,144.442C746.174,150.421 752.941,154.825 762.816,154.825C772.691,154.825 779.458,150.421 779.458,144.442C779.458,138.889 773.733,134.06 762.816,134.06ZM528.992,161.237C523.393,161.237 518.965,160.424 515.71,158.794L515.71,232.233L542.123,232.233L542.123,158.794C538.695,160.299 534.611,161.237 528.992,161.237ZM528.84,134.06C517.922,134.06 512.198,138.889 512.198,144.442C512.198,150.421 518.964,154.825 528.84,154.825C538.715,154.825 545.482,150.421 545.482,144.442C545.482,138.889 539.757,134.06 528.84,134.06Z" style="fill-rule:nonzero;"/>
        </g>
    </g>
</svg>
