<?xml version="1.0" encoding="UTF-8" standalone="no"?>
<!DOCTYPE svg PUBLIC "-//W3C//DTD SVG 1.1//EN" "http://www.w3.org/Graphics/SVG/1.1/DTD/svg11.dtd">
<svg width="100%" height="100%" viewBox="0 0 987 182" version="1.1" xmlns="http://www.w3.org/2000/svg" xmlns:xlink="http://www.w3.org/1999/xlink" xml:space="preserve" xmlns:serif="http://www.serif.com/" style="fill-rule:evenodd;clip-rule:evenodd;stroke-linejoin:round;stroke-miterlimit:2;">
    <g transform="matrix(1,0,0,1,-6.677,-34.334)">
        <path d="M282.019,140.867C280.194,138.952 277.756,137.265 274.701,135.806C271.645,134.348 267.931,133.026 263.552,131.839C260.178,130.928 257.511,130.108 255.551,129.377C253.591,128.648 252.108,128.009 251.107,127.462C250.194,126.825 249.486,126.049 248.987,125.137C248.483,124.226 248.234,123.269 248.234,122.264C248.234,121.259 248.441,120.349 248.85,119.529C249.261,118.708 249.874,118.003 250.696,117.409C251.518,116.817 252.542,116.383 253.774,116.11C255.005,115.836 256.395,115.7 257.946,115.7C259.678,115.7 261.638,116.065 263.827,116.794C266.017,117.525 268.137,118.528 270.187,119.803C271.57,120.664 272.859,121.586 274.054,122.57C275.023,123.367 276.445,123.251 277.287,122.321L284.548,114.294C285.441,113.308 285.354,111.775 284.347,110.907C282.49,109.307 280.414,107.873 278.121,106.605C275.065,104.918 271.761,103.619 268.205,102.706C264.647,101.795 260.999,101.338 257.262,101.338C253.525,101.338 249.966,101.864 246.593,102.911C243.217,103.96 240.233,105.441 237.633,107.357C235.035,109.272 233.005,111.576 231.546,114.264C230.086,116.955 229.357,119.941 229.357,123.223C229.357,125.959 229.789,128.445 230.657,130.678C231.523,132.914 232.777,134.987 234.419,136.902C236.334,138.909 238.909,140.71 242.146,142.305C245.382,143.902 249.327,145.293 253.978,146.477C256.987,147.298 259.45,148.05 261.364,148.734C263.279,149.418 264.691,150.033 265.604,150.581C267.245,151.675 268.065,153.227 268.065,155.232C268.065,156.236 267.861,157.17 267.45,158.036C267.04,158.904 266.424,159.633 265.604,160.225C264.784,160.819 263.802,161.274 262.663,161.593C261.522,161.914 260.269,162.072 258.901,162.072C255.434,162.072 251.971,161.412 248.506,160.088C245.65,159 243.042,157.337 240.683,155.102C239.808,154.273 238.449,154.236 237.532,155.019L228.871,162.414C227.838,163.296 227.744,164.877 228.688,165.853C231.637,168.897 235.301,171.353 239.682,173.219C244.925,175.452 250.921,176.57 257.669,176.57C263.141,176.57 268.064,175.566 272.442,173.561C276.821,171.556 280.261,168.821 282.769,165.354C285.277,161.889 286.531,157.923 286.531,153.454C286.531,150.902 286.166,148.577 285.437,146.478C284.707,144.382 283.567,142.511 282.017,140.87L282.019,140.867ZM351.841,159.195L319.038,159.195L351.89,115.762C352.056,115.543 352.145,115.276 352.145,115.001L352.145,104.103C352.145,103.406 351.581,102.841 350.883,102.841L295.684,102.841C294.987,102.841 294.423,103.406 294.423,104.103L294.423,117.582C294.423,118.279 294.987,118.844 295.684,118.844L328.368,118.844L294.685,162.548C294.514,162.769 294.423,163.04 294.423,163.318L294.423,173.937C294.423,174.634 294.987,175.199 295.684,175.199L351.84,175.199C352.537,175.199 353.102,174.634 353.102,173.937L353.102,160.457C353.102,159.76 352.537,159.195 351.84,159.195L351.841,159.195ZM432.137,102.841L417.583,102.841C416.277,102.841 415.216,103.901 415.216,105.208L415.216,112.356C413.829,110.458 412.22,108.738 410.361,107.218C408.124,105.395 405.526,103.958 402.564,102.909C399.599,101.862 396.341,101.336 392.784,101.336C386.493,101.336 380.885,102.933 375.96,106.123C371.036,109.316 367.138,113.738 364.265,119.391C361.393,125.046 359.958,131.52 359.958,138.814C359.958,146.108 361.369,152.584 364.198,158.237C367.023,163.892 370.853,168.359 375.686,171.642C380.52,174.925 385.946,176.566 391.964,176.566C395.337,176.566 398.53,176.04 401.539,174.993C404.548,173.946 407.26,172.531 409.677,170.753C411.713,169.254 413.458,167.567 414.943,165.712L414.943,172.831C414.943,174.138 416.004,175.198 417.31,175.198L432.138,175.198C433.444,175.198 434.504,174.138 434.504,172.831L434.504,105.206C434.504,103.899 433.445,102.839 432.138,102.839L432.137,102.841ZM413.233,149.826C411.728,152.972 409.609,155.413 406.873,157.144C404.137,158.877 400.944,159.742 397.298,159.742C393.742,159.742 390.617,158.876 387.929,157.144C385.238,155.413 383.118,152.972 381.569,149.826C380.017,146.68 379.245,143.011 379.245,138.815C379.245,134.711 380.017,131.11 381.569,128.009C383.118,124.91 385.239,122.469 387.929,120.691C390.617,118.913 393.743,118.024 397.298,118.024C400.943,118.024 404.136,118.913 406.873,120.691C409.609,122.469 411.728,124.91 413.233,128.009C414.737,131.11 415.49,134.711 415.49,138.815C415.49,143.011 414.737,146.68 413.233,149.826ZM547.964,104.824C544.225,102.591 539.529,101.473 533.875,101.473C531.504,101.473 529.088,101.838 526.627,102.567C524.163,103.298 521.791,104.3 519.513,105.576C517.233,106.854 515.18,108.404 513.358,110.227C511.893,111.692 510.644,113.278 509.593,114.976C508.591,112.553 507.388,110.486 505.972,108.79C503.873,106.283 501.321,104.437 498.312,103.25C495.303,102.066 491.929,101.472 488.191,101.472C485.728,101.472 483.266,101.861 480.805,102.635C478.342,103.411 476.017,104.481 473.828,105.849C471.641,107.217 469.702,108.858 468.015,110.773C467.558,111.291 467.131,111.829 466.726,112.38L466.51,105.136C466.472,103.857 465.424,102.84 464.144,102.84L450.068,102.84C448.762,102.84 447.702,103.9 447.702,105.207L447.702,172.832C447.702,174.139 448.761,175.199 450.068,175.199L464.896,175.199C466.202,175.199 467.263,174.139 467.263,172.832L467.263,131.838C467.263,129.923 467.626,128.145 468.357,126.504C469.085,124.862 470.088,123.426 471.366,122.195C472.642,120.964 474.17,120.006 475.947,119.323C477.726,118.639 479.662,118.297 481.761,118.297C484.312,118.297 486.455,118.844 488.19,119.939C489.921,121.033 491.243,122.654 492.156,124.795C493.066,126.939 493.523,129.514 493.523,132.523L493.523,172.832C493.523,174.139 494.584,175.199 495.89,175.199L510.718,175.199C512.024,175.199 513.084,174.139 513.084,172.832L513.084,131.975C513.084,130.06 513.447,128.26 514.178,126.572C514.907,124.886 515.933,123.426 517.256,122.195C518.577,120.964 520.129,120.006 521.906,119.323C523.685,118.639 525.623,118.297 527.721,118.297C530.456,118.297 532.689,118.823 534.423,119.87C536.154,120.919 537.476,122.492 538.389,124.589C539.299,126.688 539.756,129.376 539.756,132.659L539.756,172.832C539.756,174.139 540.817,175.199 542.123,175.199L556.814,175.199C558.122,175.199 559.181,174.139 559.181,172.832L559.181,131.291C559.181,124.817 558.245,119.346 556.376,114.877C554.506,110.41 551.702,107.059 547.964,104.823L547.964,104.824ZM574.337,73.979L589.027,73.979C590.333,73.979 591.393,75.039 591.393,76.345L591.393,172.832C591.393,174.138 590.333,175.199 589.026,175.199L574.338,175.199C573.032,175.199 571.971,174.138 571.971,172.832L571.971,76.346C571.971,75.04 573.031,73.979 574.338,73.979L574.337,73.979ZM746.814,159.195L715.116,159.195L747.744,116.058C748.056,115.647 748.223,115.146 748.223,114.63L748.223,105.207C748.223,103.9 747.164,102.84 745.856,102.84L692.867,102.84C691.559,102.84 690.5,103.9 690.5,105.207L690.5,116.477C690.5,117.784 691.559,118.844 692.867,118.844L724.446,118.844L690.992,162.25C690.672,162.664 690.499,163.172 690.499,163.695L690.499,172.833C690.499,174.14 691.558,175.2 692.866,175.2L746.812,175.2C748.12,175.2 749.179,174.14 749.179,172.833L749.179,161.563C749.179,160.256 748.12,159.196 746.812,159.196L746.814,159.195ZM814.248,102.841L761.259,102.841C759.951,102.841 758.892,103.901 758.892,105.208L758.892,116.478C758.892,117.785 759.951,118.845 761.259,118.845L792.837,118.845L759.383,162.251C759.065,162.665 758.892,163.173 758.892,163.696L758.892,172.834C758.892,174.141 759.951,175.201 761.259,175.201L807.847,175.201C809.156,175.201 810.216,174.139 810.214,172.83L810.195,161.56C810.192,160.254 809.134,159.197 807.828,159.197L783.507,159.197L816.135,116.06C816.445,115.649 816.614,115.148 816.614,114.632L816.614,105.209C816.614,103.902 815.555,102.842 814.247,102.842L814.248,102.841ZM829.078,153.588C825.795,153.588 823.127,154.661 821.075,156.802C819.023,158.946 817.997,161.705 817.997,165.078C817.997,168.818 818.954,171.691 820.869,173.695C822.784,175.7 825.52,176.704 829.077,176.704C832.359,176.704 835.002,175.631 837.01,173.49C839.015,171.349 840.019,168.544 840.019,165.078C840.019,161.431 839.062,158.604 837.147,156.597C835.232,154.592 832.541,153.588 829.077,153.588L829.078,153.588ZM903.224,104.619C899.53,102.431 894.947,101.336 889.476,101.336C885.463,101.336 881.633,102.156 877.986,103.798C874.338,105.439 871.216,107.606 868.617,110.295C868.053,110.88 867.533,111.48 867.045,112.093L867.045,76.346C867.045,75.039 865.984,73.979 864.678,73.979L850.263,73.979C848.955,73.979 847.896,75.039 847.896,76.346L847.896,172.832C847.896,174.139 848.955,175.199 850.263,175.199L864.952,175.199C866.258,175.199 867.319,174.139 867.319,172.832L867.319,131.702C867.319,129.787 867.706,128.009 868.48,126.368C869.255,124.726 870.305,123.269 871.626,121.991C872.947,120.715 874.544,119.734 876.414,119.05C878.282,118.366 880.312,118.024 882.501,118.024C885.236,117.934 887.539,118.389 889.408,119.392C891.277,120.397 892.668,121.991 893.58,124.179C894.492,126.368 894.948,129.103 894.948,132.386L894.948,172.832C894.948,174.139 896.009,175.199 897.315,175.199L912.004,175.199C913.312,175.199 914.371,174.139 914.371,172.832L914.371,130.881C914.371,124.407 913.435,118.959 911.567,114.536C909.697,110.114 906.916,106.808 903.223,104.619L903.224,104.619ZM992.006,102.841L975.215,102.841C974.487,102.841 973.898,103.43 973.898,104.157L973.898,146.201C973.898,148.208 973.533,150.078 972.804,151.809C972.074,153.542 971.048,155.047 969.726,156.323C968.405,157.601 966.855,158.58 965.076,159.264C963.297,159.948 961.359,160.29 959.263,160.29C956.343,160.29 953.881,159.653 951.875,158.375C949.869,157.099 948.319,155.253 947.225,152.835C946.131,150.42 945.584,147.569 945.584,144.286L945.584,104.157C945.584,103.43 944.995,102.841 944.268,102.841L927.476,102.841C926.75,102.841 926.16,103.43 926.16,104.157L926.16,147.432C926.16,153.542 927.186,158.764 929.238,163.094C931.29,167.427 934.207,170.754 937.991,173.079C941.775,175.404 946.312,176.567 951.601,176.567C955.706,176.567 959.535,175.792 963.092,174.242C966.648,172.692 969.702,170.549 972.256,167.813C973.041,166.972 973.749,166.096 974.396,165.195L974.797,173.944C974.829,174.647 975.408,175.2 976.112,175.2L992.004,175.2C992.732,175.2 993.321,174.611 993.321,173.884L993.321,104.158C993.321,103.431 992.732,102.842 992.004,102.842L992.006,102.841ZM627.629,93.9L661.235,89.504C661.806,89.413 662.227,88.923 662.233,88.346L662.354,74.491C662.361,73.668 661.547,73.089 660.771,73.367L627.043,83.268C626.597,83.428 626.29,83.839 626.262,84.313L626.262,92.663C626.218,93.418 626.884,94.02 627.63,93.901L627.629,93.9ZM384.605,93.9L418.212,89.504C418.783,89.413 419.203,88.923 419.208,88.346L419.33,74.491C419.337,73.668 418.522,73.089 417.747,73.367L384.019,83.268C383.572,83.428 383.264,83.839 383.236,84.313L383.236,92.663C383.192,93.418 383.858,94.02 384.604,93.901L384.605,93.9ZM675.297,102.978L660.743,102.978C659.437,102.978 658.376,104.038 658.376,105.345L658.376,112.493C656.989,110.595 655.38,108.875 653.521,107.355C651.284,105.532 648.686,104.095 645.724,103.046C642.759,101.999 639.501,101.473 635.944,101.473C629.653,101.473 624.045,103.07 619.12,106.26C614.196,109.453 610.298,113.875 607.425,119.528C604.553,125.183 603.118,131.657 603.118,138.951C603.118,146.245 604.529,152.721 607.358,158.374C610.183,164.029 614.013,168.496 618.846,171.779C623.68,175.062 629.106,176.703 635.124,176.703C638.497,176.703 641.69,176.177 644.699,175.13C647.708,174.083 650.42,172.668 652.837,170.89C654.873,169.391 656.618,167.704 658.103,165.849L658.103,172.968C658.103,174.275 659.164,175.335 660.47,175.335L675.298,175.335C676.604,175.335 677.664,174.275 677.664,172.968L677.664,105.343C677.664,104.036 676.605,102.976 675.298,102.976L675.297,102.978ZM656.393,149.963C654.888,153.109 652.769,155.55 650.033,157.281C647.297,159.014 644.104,159.879 640.458,159.879C636.902,159.879 633.777,159.013 631.089,157.281C628.398,155.55 626.278,153.109 624.729,149.963C623.177,146.817 622.405,143.148 622.405,138.952C622.405,134.848 623.177,131.247 624.729,128.146C626.278,125.047 628.399,122.606 631.089,120.828C633.777,119.05 636.903,118.161 640.458,118.161C644.103,118.161 647.296,119.05 650.033,120.828C652.769,122.606 654.888,125.047 656.393,128.146C657.897,131.247 658.65,134.848 658.65,138.952C658.65,143.148 657.897,146.817 656.393,149.963ZM143.198,68.479L143.198,186.867C143.198,189.847 140.783,192.262 137.803,192.262L38.211,192.262L37.625,198.959C37.368,201.899 39.521,204.5 42.457,204.797L149.795,215.639C152.782,215.941 155.44,213.746 155.71,210.757L167.88,76.07C168.149,73.097 165.951,70.47 162.977,70.21L143.197,68.48L143.198,68.479ZM6.677,39.729L6.677,175.264C6.677,178.244 9.092,180.659 12.072,180.659L126.2,180.659C129.18,180.659 131.595,178.244 131.595,175.264L131.595,39.729C131.595,36.749 129.18,34.334 126.2,34.334L12.072,34.334C9.092,34.334 6.677,36.749 6.677,39.729ZM82.238,92.339C82.238,94.728 80.301,96.665 77.912,96.665L29.361,96.665C26.972,96.665 25.035,94.728 25.035,92.339L25.035,89.246C25.035,86.857 26.972,84.92 29.361,84.92L77.911,84.92C80.3,84.92 82.237,86.857 82.237,89.246L82.237,92.339L82.238,92.339ZM113.379,64.363C113.379,66.752 111.442,68.689 109.053,68.689L28.891,68.689C26.502,68.689 24.565,66.752 24.565,64.363L24.565,61.27C24.565,58.881 26.502,56.944 28.891,56.944L109.053,56.944C111.442,56.944 113.379,58.881 113.379,61.27L113.379,64.363Z" style="fill:rgb(255,102,48);fill-rule:nonzero;"/>
    </g>
</svg>
